<svg width="1600" height="1200" viewBox="0 0 1600 1200" fill="none" xmlns="http://www.w3.org/2000/svg">
<defs>
<linearGradient id="g1" x1="160" y1="120" x2="1460" y2="1100" gradientUnits="userSpaceOnUse">
<stop stop-color="#EAF2FF"/>
<stop offset="0.45" stop-color="#F7FAFF"/>
<stop offset="1" stop-color="#DDEBFF"/>
</linearGradient>
<linearGradient id="g2" x1="200" y1="280" x2="1400" y2="1000" gradientUnits="userSpaceOnUse">
<stop stop-color="#0F172A" stop-opacity="0.08"/>
<stop offset="1" stop-color="#2563EB" stop-opacity="0.18"/>
</linearGradient>
</defs>
<rect width="1600" height="1200" rx="60" fill="url(#g1)"/>
<circle cx="1240" cy="280" r="280" fill="#CFE3FF" fill-opacity="0.65"/>
<circle cx="360" cy="960" r="240" fill="#DBF7EE" fill-opacity="0.7"/>
<rect x="190" y="210" width="1220" height="790" rx="44" fill="#FFFFFF" fill-opacity="0.72"/>
<rect x="220" y="240" width="1160" height="730" rx="36" fill="#F8FBFF"/>
<rect x="300" y="310" width="380" height="560" rx="30" fill="#D4E7FF"/>
<rect x="710" y="300" width="350" height="575" rx="30" fill="#BFE9D5"/>
<rect x="1080" y="260" width="220" height="620" rx="30" fill="#F1F5F9"/>
<rect x="342" y="360" width="260" height="58" rx="29" fill="#0F172A" fill-opacity="0.14"/>
<rect x="820" y="380" width="170" height="18" rx="9" fill="#2563EB" fill-opacity="0.25"/>
<rect x="820" y="420" width="210" height="18" rx="9" fill="#0EA5E9" fill-opacity="0.22"/>
<rect x="820" y="460" width="140" height="18" rx="9" fill="#2563EB" fill-opacity="0.18"/>
<rect x="1098" y="314" width="174" height="174" rx="22" fill="#D9EAFB"/>
<rect x="1098" y="510" width="174" height="174" rx="22" fill="#E0F2FF"/>
<rect x="1098" y="706" width="174" height="94" rx="22" fill="#E8F0FE"/>
<rect x="350" y="770" width="320" height="46" rx="23" fill="#0EA5E9" fill-opacity="0.92"/>
<rect x="690" y="770" width="190" height="46" rx="23" fill="#FFFFFF"/>
<rect x="340" y="860" width="830" height="90" rx="24" fill="url(#g2)"/>
</svg>
